<svg width="22" height="24" viewBox="0 0 22 24" fill="none" xmlns="http://www.w3.org/2000/svg">
<path d="M15.359 22.5659V18.5967C15.3974 18.1076 15.3314 17.616 15.1651 17.1544C14.9989 16.6929 14.7363 16.272 14.3949 15.9198C17.6154 15.5608 21 14.3403 21 8.7403C20.9997 7.30833 20.4489 5.93127 19.4615 4.89415C19.9291 3.64133 19.896 2.25656 19.3692 1.02748C19.3692 1.02748 18.159 0.668506 15.359 2.54543C13.0082 1.90832 10.5302 1.90832 8.17949 2.54543C5.37949 0.668506 4.16923 1.02748 4.16923 1.02748C3.64244 2.25656 3.60938 3.64133 4.07692 4.89415C3.08218 5.93897 2.53079 7.32847 2.53846 8.77107C2.53846 14.33 5.92308 15.5506 9.14359 15.9506C8.80615 16.2992 8.54591 16.7151 8.3798 17.171C8.2137 17.6269 8.14544 18.1127 8.17949 18.5967V22.5659M8.17949 19.489C3.05128 21.0275 3.05128 16.9249 1 16.4121L8.17949 19.489Z" stroke="white" stroke-width="2" stroke-linecap="round" stroke-linejoin="round"/>
</svg>
