<svg id="Capa_1" enable-background="new 0 0 512 512" height="512" viewBox="0 0 512 512" width="512" xmlns="http://www.w3.org/2000/svg"><g><g><g><g><g><g><g><g><g><circle cx="256" cy="256" fill="#7584f2" r="256"/></g></g></g></g></g></g></g></g><path d="m512 256c0-.843-.004-1.684-.012-2.525l-144.603-144.602-220.3 207.656 60.593 60.594-99.385 52.976 69.846 69.846c24.553 7.829 50.713 12.055 77.861 12.055 141.385 0 256-114.615 256-256z" fill="#4855b7"/><g><path d="m256 326.497c-67.966 0-125.843 43.18-147.707 103.602h295.413c-21.863-60.422-79.74-103.602-147.706-103.602z" fill="#e9edf5"/></g><g><path d="m256.12 326.498v103.6h147.586c-21.851-60.386-79.671-103.549-147.586-103.6z" fill="#cdd2e1"/></g><g><circle cx="256" cy="211.389" fill="#fff" r="151.389"/></g><g><path d="m407.389 211.389c0-83.57-67.714-151.322-151.268-151.387v302.775c83.554-.066 151.268-67.819 151.268-151.388z" fill="#e9edf5"/></g><g><circle cx="256" cy="211.389" fill="#cdd2e1" r="77.238"/></g><g><path d="m333.238 211.389c0-42.617-34.516-77.169-77.117-77.235v154.469c42.601-.065 77.117-34.617 77.117-77.234z" fill="#afb4c8"/></g><g><circle cx="256" cy="211.389" fill="#555a66" r="45.962"/></g><g><path d="m301.962 211.389c0-25.344-20.513-45.893-45.841-45.959v91.917c25.328-.065 45.841-20.615 45.841-45.958z" fill="#333940"/></g><g><circle cx="237.885" cy="194.602" fill="#fff" r="16.689"/></g></g></svg>