<svg width="27" height="22" viewBox="0 0 27 22" fill="none" xmlns="http://www.w3.org/2000/svg">
<path d="M8.7827 16.5584L13.2243 21L17.6658 16.5584" stroke="white" stroke-width="2" stroke-linecap="round" stroke-linejoin="round"/>
<path d="M13.2243 11.0065V21" stroke="white" stroke-width="2" stroke-linecap="round" stroke-linejoin="round"/>
<path d="M23.0846 17.7688C24.0499 17.0899 24.7739 16.1211 25.1513 15.0029C25.5288 13.8848 25.5401 12.6754 25.1836 11.5504C24.8272 10.4253 24.1215 9.44314 23.169 8.74633C22.2165 8.04953 21.0668 7.67437 19.8866 7.67529H18.4875C18.1536 6.37377 17.5287 5.16497 16.66 4.13989C15.7912 3.11481 14.7013 2.30017 13.4721 1.75729C12.243 1.21442 10.9067 0.957449 9.56389 1.00574C8.22108 1.05403 6.90671 1.40632 5.71974 2.03608C4.53278 2.66585 3.50415 3.55668 2.71129 4.64151C1.91842 5.72634 1.38199 6.97691 1.14238 8.29905C0.90277 9.6212 0.966218 10.9805 1.32795 12.2746C1.68968 13.5686 2.34027 14.7638 3.23074 15.7701" stroke="white" stroke-width="2" stroke-linecap="round" stroke-linejoin="round"/>
</svg>
